#!OML:ASF F:\VICON\USERDATA\INSTALL\rory3\rory3.ASF
:FULLY-SPECIFIED
:DEGREES
341
root 0.571955 18.4756 11.0684 -184.155 66.2122 177.184
lowerback 10.1478 3.82359 0.35496
upperback 1.80171 5.20075 0.253871
thorax -3.78664 2.60549 -0.623544
lowerneck -13.5439 3.91821 -7.47265
upperneck 45.3989 12.7443 3.1319
head 19.0078 5.5244 5.6911
rclavicle -3.15571e-014 8.74653e-015
rhumerus -31.0852 -10.5802 -77.3441
rradius 33.9396
rwrist 4.14744
rhand -15.7014 8.01136
rfingers 7.12502
rthumb 10.4882 -21.707
lclavicle -3.15571e-014 8.74653e-015
lhumerus -40.3331 4.51699 81.4986
lradius 35.5307
lwrist -4.21213
lhand -17.8201 25.0388
lfingers 7.12502
lthumb 8.44394 54.85
rfemur -9.81358 -11.1033 15.3177
rtibia 54.5057
rfoot -4.8482 -2.3595
rtoes -5.0853
lfemur -8.80176 -3.33436 -29.2078
ltibia 26.6867
lfoot 5.51631 -10.5918
ltoes 0.486752
342
root 0.476968 18.4743 11.1004 -184.056 66.7285 177.236
lowerback 10.1506 3.87649 0.476499
upperback 1.75027 5.28129 0.23329
thorax -3.8281 2.64234 -0.72493
lowerneck -13.5 3.95182 -7.44961
upperneck 45.3267 12.7756 3.06349
head 18.9569 5.53182 5.64639
rclavicle -2.37051e-014 -7.95139e-015
rhumerus -30.6957 -10.0406 -77.7352
rradius 34.4629
rwrist 3.85749
rhand -15.6716 7.91011
rfingers 7.12502
rthumb 10.517 -21.8068
lclavicle -2.37051e-014 -7.95139e-015
lhumerus -40.7017 4.87827 81.3315
lradius 34.971
lwrist -4.65827
lhand -17.5649 25.3637
lfingers 7.12502
lthumb 8.69019 55.1648
rfemur -9.1234 -11.1352 15.4523
rtibia 54.2823
rfoot -4.25583 -2.25685
rtoes -4.36827
lfemur -9.13154 -3.33821 -29.1525
ltibia 26.5468
lfoot 5.48125 -10.0523
ltoes 2.13438
343
root 0.37814 18.4747 11.1329 -183.548 67.3162 177.714
lowerback 10.1997 3.99657 0.853264
upperback 1.70488 5.47888 0.193537
thorax -3.8612 2.73409 -1.00535
lowerneck -13.5634 3.90212 -7.52101
upperneck 45.4004 12.6686 3.20859
head 19.0044 5.48885 5.72083
rclavicle -5.55603e-014 9.54166e-015
rhumerus -30.2745 -10.0338 -78.054
rradius 34.8388
rwrist 3.8809
rhand -15.589 8.1305
rfingers 7.12502
rthumb 10.5967 -21.5823
lclavicle -5.55603e-014 9.54166e-015
lhumerus -41.0157 4.77559 81.2857
lradius 34.5197
lwrist -4.86255
lhand -17.2509 25.6551
lfingers 7.12502
lthumb 8.99319 55.4434
rfemur -8.45122 -11.0782 15.7936
rtibia 53.9738
rfoot -3.75578 -2.4253
rtoes -4.83509
lfemur -9.51571 -3.25569 -28.9152
ltibia 26.4272
lfoot 5.20214 -10.0004
ltoes -0.15117
344
root 0.275729 18.4753 11.1666 -182.99 67.9794 178.201
lowerback 10.2711 4.11599 1.11961
upperback 1.62614 5.66619 0.212255
thorax -3.95546 2.82065 -1.16683
lowerneck -13.6011 3.879 -7.66875
upperneck 45.4452 12.6065 3.36558
head 19.0145 5.45501 5.81382
rclavicle 6.75868e-015 -9.93923e-015
rhumerus -29.8069 -9.84664 -78.3574
rradius 35.1421
rwrist 3.90634
rhand -15.7172 8.38999
rfingers 7.12502
rthumb 10.473 -21.3291
lclavicle 6.75868e-015 -9.93923e-015
lhumerus -41.4015 4.93191 81.1941
lradius 34.1151
lwrist -5.04409
lhand -16.7565 25.4897
lfingers 7.12502
lthumb 9.47028 55.257
rfemur -7.83277 -10.9175 16.1576
rtibia 53.5771
rfoot -3.3548 -2.49633
rtoes -6.58109
lfemur -9.96338 -3.13109 -28.6741
ltibia 26.3028
lfoot 5.07923 -9.63383
ltoes -0.936451
345
root 0.175667 18.4712 11.2033 -182.814 68.6924 178.289
lowerback 10.3093 4.26625 1.17196
upperback 1.57604 5.87126 0.231088
thorax -4.02074 2.91942 -1.20877
lowerneck -13.5698 3.882 -7.81148
upperneck 45.3545 12.5935 3.3877
head 18.9329 5.43119 5.82834
rclavicle -3.79679e-014 7.55382e-015
rhumerus -29.3831 -9.44227 -78.6451
rradius 35.5408
rwrist 3.88327
rhand -16.0438 8.20312
rfingers 7.12502
rthumb 10.1579 -21.5317
lclavicle -3.79679e-014 7.55382e-015
lhumerus -41.7276 5.3725 81.0329
lradius 33.7292
lwrist -5.4507
lhand -15.9699 25.6534
lfingers 7.12502
lthumb 10.2292 55.3847
rfemur -7.22499 -10.7243 16.3617
rtibia 53.1313
rfoot -2.82101 -2.29534
rtoes -8.07469
lfemur -10.3783 -2.94563 -28.597
ltibia 26.1857
lfoot 5.17918 -8.99054
ltoes 0.293422
346
root 0.0758186 18.4688 11.2443 -182.788 69.3413 178.324
lowerback 10.4077 4.44518 1.23419
upperback 1.60888 6.11627 0.198576
thorax -4.02485 3.04014 -1.3153
lowerneck -13.6368 3.84451 -7.70656
upperneck 45.2859 12.5384 3.23368
head 18.9426 5.39846 5.7284
rclavicle -9.93923e-017 1.51076e-014
rhumerus -28.9811 -9.13998 -78.9628
rradius 36.1016
rwrist 3.69201
rhand -16.1373 8.05178
rfingers 7.12502
rthumb 10.0677 -21.6874
lclavicle -9.93923e-017 1.51076e-014
lhumerus -41.88 5.53615 80.9225
lradius 33.2124
lwrist -6.07691
lhand -15.787 25.6695
lfingers 7.12502
lthumb 10.4056 55.392
rfemur -6.50221 -10.4695 16.5679
rtibia 52.6221
rfoot -2.32804 -2.02599
rtoes -8.06716
lfemur -10.6798 -2.71283 -28.5312
ltibia 26.0688
lfoot 5.17072 -8.65217
ltoes -0.561159
347
root -0.0296415 18.4648 11.2833 -182.641 69.8564 178.503
lowerback 10.5862 4.55722 1.42435
upperback 1.62401 6.28796 0.154323
thorax -4.07777 3.12176 -1.50294
lowerneck -13.6496 3.83579 -7.6747
upperneck 45.2295 12.4885 3.2172
head 18.9177 5.37886 5.70017
rclavicle -1.08189e-013 2.14687e-014
rhumerus -28.65 -8.69538 -79.3244
rradius 36.7364
rwrist 3.30362
rhand -15.9165 8.06984
rfingers 7.12502
rthumb 10.2808 -21.6589
lclavicle -1.08189e-013 2.14687e-014
lhumerus -42.0324 5.7262 80.7586
lradius 32.6523
lwrist -6.95687
lhand -16.0052 25.3602
lfingers 7.12502
lthumb 10.1952 55.0932
rfemur -5.78399 -10.2196 16.8287
rtibia 52.0627
rfoot -1.89381 -1.75227
rtoes -7.53463
lfemur -10.9868 -2.59226 -28.4287
ltibia 25.9478
lfoot 5.06339 -8.52957
ltoes -2.58089
